<mxfile host="app.diagrams.net" modified="2022-08-31T10:35:04.653Z" agent="5.0 (Windows NT 10.0; Win64; x64) AppleWebKit/537.36 (KHTML, like Gecko) Chrome/95.0.4638.69 Safari/537.36" etag="hfmSf4oSIyw-RlCyU_9p" version="20.2.7" type="github">
  <diagram id="lFj56GWqkKB7L1kMhn9B" name="第 1 页">
    <mxGraphModel dx="1422" dy="795" grid="1" gridSize="10" guides="1" tooltips="1" connect="1" arrows="1" fold="1" page="1" pageScale="1" pageWidth="1169" pageHeight="827" math="0" shadow="0">
      <root>
        <mxCell id="0" />
        <mxCell id="1" parent="0" />
        <mxCell id="_zRB16z99-tlWJZlGZC0-24" style="edgeStyle=orthogonalEdgeStyle;rounded=0;orthogonalLoop=1;jettySize=auto;html=1;exitX=1;exitY=0.75;exitDx=0;exitDy=0;" edge="1" parent="1" source="_zRB16z99-tlWJZlGZC0-23" target="_zRB16z99-tlWJZlGZC0-14">
          <mxGeometry relative="1" as="geometry" />
        </mxCell>
        <mxCell id="_zRB16z99-tlWJZlGZC0-25" value="办结归档" style="edgeLabel;html=1;align=center;verticalAlign=middle;resizable=0;points=[];" vertex="1" connectable="0" parent="_zRB16z99-tlWJZlGZC0-24">
          <mxGeometry x="0.4557" y="1" relative="1" as="geometry">
            <mxPoint as="offset" />
          </mxGeometry>
        </mxCell>
        <mxCell id="_zRB16z99-tlWJZlGZC0-23" value="" style="rounded=0;whiteSpace=wrap;html=1;dashed=1;" vertex="1" parent="1">
          <mxGeometry x="90" y="600" width="210" height="280" as="geometry" />
        </mxCell>
        <mxCell id="_zRB16z99-tlWJZlGZC0-9" value="发送通知" style="rounded=0;orthogonalLoop=1;jettySize=auto;html=1;exitX=0.5;exitY=0;exitDx=0;exitDy=0;entryX=0;entryY=0.5;entryDx=0;entryDy=0;edgeStyle=orthogonalEdgeStyle;" edge="1" parent="1" source="_zRB16z99-tlWJZlGZC0-1" target="_zRB16z99-tlWJZlGZC0-7">
          <mxGeometry relative="1" as="geometry" />
        </mxCell>
        <mxCell id="_zRB16z99-tlWJZlGZC0-1" value="内部通知" style="rounded=1;whiteSpace=wrap;html=1;" vertex="1" parent="1">
          <mxGeometry x="130" y="470" width="120" height="60" as="geometry" />
        </mxCell>
        <mxCell id="_zRB16z99-tlWJZlGZC0-3" value="发文定稿" style="edgeStyle=orthogonalEdgeStyle;rounded=0;orthogonalLoop=1;jettySize=auto;html=1;entryX=0.5;entryY=1;entryDx=0;entryDy=0;" edge="1" parent="1" source="_zRB16z99-tlWJZlGZC0-2" target="_zRB16z99-tlWJZlGZC0-1">
          <mxGeometry relative="1" as="geometry" />
        </mxCell>
        <mxCell id="_zRB16z99-tlWJZlGZC0-6" value="发文定稿后关联收文" style="edgeStyle=orthogonalEdgeStyle;rounded=0;orthogonalLoop=1;jettySize=auto;html=1;exitX=0.25;exitY=1;exitDx=0;exitDy=0;entryX=0.25;entryY=0;entryDx=0;entryDy=0;" edge="1" parent="1" source="_zRB16z99-tlWJZlGZC0-2" target="_zRB16z99-tlWJZlGZC0-4">
          <mxGeometry x="-0.4" relative="1" as="geometry">
            <mxPoint as="offset" />
          </mxGeometry>
        </mxCell>
        <mxCell id="_zRB16z99-tlWJZlGZC0-2" value="发文" style="rounded=1;whiteSpace=wrap;html=1;" vertex="1" parent="1">
          <mxGeometry x="130" y="630" width="120" height="60" as="geometry" />
        </mxCell>
        <mxCell id="_zRB16z99-tlWJZlGZC0-5" value="收文启动发文" style="edgeStyle=orthogonalEdgeStyle;rounded=0;orthogonalLoop=1;jettySize=auto;html=1;entryX=0.75;entryY=1;entryDx=0;entryDy=0;exitX=0.75;exitY=0;exitDx=0;exitDy=0;" edge="1" parent="1" source="_zRB16z99-tlWJZlGZC0-4" target="_zRB16z99-tlWJZlGZC0-2">
          <mxGeometry x="-0.2" relative="1" as="geometry">
            <Array as="points">
              <mxPoint x="220" y="760" />
              <mxPoint x="220" y="760" />
            </Array>
            <mxPoint as="offset" />
          </mxGeometry>
        </mxCell>
        <mxCell id="_zRB16z99-tlWJZlGZC0-4" value="收文" style="rounded=1;whiteSpace=wrap;html=1;" vertex="1" parent="1">
          <mxGeometry x="130" y="790" width="120" height="60" as="geometry" />
        </mxCell>
        <mxCell id="_zRB16z99-tlWJZlGZC0-7" value="短信" style="rounded=1;whiteSpace=wrap;html=1;" vertex="1" parent="1">
          <mxGeometry x="350" y="360" width="120" height="60" as="geometry" />
        </mxCell>
        <mxCell id="_zRB16z99-tlWJZlGZC0-10" value="会议通知" style="edgeStyle=orthogonalEdgeStyle;rounded=0;orthogonalLoop=1;jettySize=auto;html=1;entryX=1;entryY=0.5;entryDx=0;entryDy=0;exitX=0.5;exitY=0;exitDx=0;exitDy=0;" edge="1" parent="1" source="_zRB16z99-tlWJZlGZC0-8" target="_zRB16z99-tlWJZlGZC0-7">
          <mxGeometry relative="1" as="geometry" />
        </mxCell>
        <mxCell id="_zRB16z99-tlWJZlGZC0-8" value="会议" style="rounded=1;whiteSpace=wrap;html=1;" vertex="1" parent="1">
          <mxGeometry x="570" y="450" width="120" height="60" as="geometry" />
        </mxCell>
        <mxCell id="_zRB16z99-tlWJZlGZC0-15" value="项目上会" style="edgeStyle=none;rounded=0;orthogonalLoop=1;jettySize=auto;html=1;entryX=0.5;entryY=1;entryDx=0;entryDy=0;" edge="1" parent="1" source="_zRB16z99-tlWJZlGZC0-11" target="_zRB16z99-tlWJZlGZC0-8">
          <mxGeometry relative="1" as="geometry" />
        </mxCell>
        <mxCell id="_zRB16z99-tlWJZlGZC0-16" style="edgeStyle=orthogonalEdgeStyle;rounded=0;orthogonalLoop=1;jettySize=auto;html=1;entryX=0.6;entryY=1;entryDx=0;entryDy=0;entryPerimeter=0;" edge="1" parent="1" source="_zRB16z99-tlWJZlGZC0-11" target="_zRB16z99-tlWJZlGZC0-7">
          <mxGeometry relative="1" as="geometry" />
        </mxCell>
        <mxCell id="_zRB16z99-tlWJZlGZC0-19" value="批转通知/取件通知" style="edgeLabel;html=1;align=center;verticalAlign=middle;resizable=0;points=[];" vertex="1" connectable="0" parent="_zRB16z99-tlWJZlGZC0-16">
          <mxGeometry y="-1" relative="1" as="geometry">
            <mxPoint as="offset" />
          </mxGeometry>
        </mxCell>
        <mxCell id="_zRB16z99-tlWJZlGZC0-20" style="edgeStyle=orthogonalEdgeStyle;rounded=0;orthogonalLoop=1;jettySize=auto;html=1;exitX=0.5;exitY=1;exitDx=0;exitDy=0;entryX=0.5;entryY=0;entryDx=0;entryDy=0;" edge="1" parent="1" source="_zRB16z99-tlWJZlGZC0-11" target="_zRB16z99-tlWJZlGZC0-14">
          <mxGeometry relative="1" as="geometry" />
        </mxCell>
        <mxCell id="_zRB16z99-tlWJZlGZC0-26" value="办结归档" style="edgeLabel;html=1;align=center;verticalAlign=middle;resizable=0;points=[];" vertex="1" connectable="0" parent="_zRB16z99-tlWJZlGZC0-20">
          <mxGeometry x="-0.2553" relative="1" as="geometry">
            <mxPoint as="offset" />
          </mxGeometry>
        </mxCell>
        <mxCell id="_zRB16z99-tlWJZlGZC0-22" style="edgeStyle=orthogonalEdgeStyle;rounded=0;orthogonalLoop=1;jettySize=auto;html=1;exitX=0;exitY=0.75;exitDx=0;exitDy=0;" edge="1" parent="1" source="_zRB16z99-tlWJZlGZC0-11" target="_zRB16z99-tlWJZlGZC0-2">
          <mxGeometry relative="1" as="geometry" />
        </mxCell>
        <mxCell id="_zRB16z99-tlWJZlGZC0-27" value="审批过程发文" style="edgeLabel;html=1;align=center;verticalAlign=middle;resizable=0;points=[];" vertex="1" connectable="0" parent="_zRB16z99-tlWJZlGZC0-22">
          <mxGeometry x="0.3352" y="2" relative="1" as="geometry">
            <mxPoint as="offset" />
          </mxGeometry>
        </mxCell>
        <mxCell id="_zRB16z99-tlWJZlGZC0-11" value="审批" style="rounded=1;whiteSpace=wrap;html=1;" vertex="1" parent="1">
          <mxGeometry x="570" y="580" width="120" height="60" as="geometry" />
        </mxCell>
        <mxCell id="_zRB16z99-tlWJZlGZC0-17" style="edgeStyle=orthogonalEdgeStyle;rounded=0;orthogonalLoop=1;jettySize=auto;html=1;exitX=0.5;exitY=1;exitDx=0;exitDy=0;" edge="1" parent="1" source="_zRB16z99-tlWJZlGZC0-12" target="_zRB16z99-tlWJZlGZC0-7">
          <mxGeometry relative="1" as="geometry">
            <mxPoint x="490" y="400" as="targetPoint" />
          </mxGeometry>
        </mxCell>
        <mxCell id="_zRB16z99-tlWJZlGZC0-18" value="批转通知" style="edgeLabel;html=1;align=center;verticalAlign=middle;resizable=0;points=[];" vertex="1" connectable="0" parent="_zRB16z99-tlWJZlGZC0-17">
          <mxGeometry x="-0.2964" y="3" relative="1" as="geometry">
            <mxPoint as="offset" />
          </mxGeometry>
        </mxCell>
        <mxCell id="_zRB16z99-tlWJZlGZC0-12" value="一般事务" style="rounded=1;whiteSpace=wrap;html=1;" vertex="1" parent="1">
          <mxGeometry x="170" y="170" width="120" height="60" as="geometry" />
        </mxCell>
        <mxCell id="_zRB16z99-tlWJZlGZC0-13" value="督办事务" style="rounded=1;whiteSpace=wrap;html=1;" vertex="1" parent="1">
          <mxGeometry x="510" y="170" width="120" height="60" as="geometry" />
        </mxCell>
        <mxCell id="_zRB16z99-tlWJZlGZC0-14" value="档案" style="rounded=1;whiteSpace=wrap;html=1;" vertex="1" parent="1">
          <mxGeometry x="570" y="734" width="120" height="60" as="geometry" />
        </mxCell>
        <mxCell id="_zRB16z99-tlWJZlGZC0-28" value="通讯录" style="rounded=1;whiteSpace=wrap;html=1;" vertex="1" parent="1">
          <mxGeometry x="780" y="580" width="120" height="60" as="geometry" />
        </mxCell>
      </root>
    </mxGraphModel>
  </diagram>
</mxfile>
